<svg width="115" height="18" viewBox="0 0 115 18" fill="none" xmlns="http://www.w3.org/2000/svg">
<g clip-path="url(#clip0_2_132)">
<path d="M16 9C16 11.1217 15.1571 13.1566 13.6569 14.6569C12.1566 16.1571 10.1217 17 8 17C5.87827 17 3.84344 16.1571 2.34315 14.6569C0.842855 13.1566 0 11.1217 0 9C0 6.87827 0.842855 4.84344 2.34315 3.34315C3.84344 1.84285 5.87827 1 8 1C10.1217 1 12.1566 1.84285 13.6569 3.34315C15.1571 4.84344 16 6.87827 16 9ZM8 5C7.87361 5.00007 7.74863 5.02662 7.63312 5.07793C7.51761 5.12924 7.41413 5.20418 7.32934 5.29791C7.24456 5.39165 7.18035 5.5021 7.14084 5.62217C7.10134 5.74223 7.08743 5.86923 7.1 5.995L7.45 9.502C7.46176 9.63977 7.5248 9.76811 7.62664 9.86164C7.72849 9.95516 7.86173 10.0071 8 10.0071C8.13827 10.0071 8.27151 9.95516 8.37336 9.86164C8.4752 9.76811 8.53824 9.63977 8.55 9.502L8.9 5.995C8.91257 5.86923 8.89866 5.74223 8.85915 5.62217C8.81965 5.5021 8.75544 5.39165 8.67066 5.29791C8.58587 5.20418 8.48239 5.12924 8.36688 5.07793C8.25137 5.02662 8.12639 5.00007 8 5ZM8.002 11C7.73678 11 7.48243 11.1054 7.29489 11.2929C7.10736 11.4804 7.002 11.7348 7.002 12C7.002 12.2652 7.10736 12.5196 7.29489 12.7071C7.48243 12.8946 7.73678 13 8.002 13C8.26722 13 8.52157 12.8946 8.70911 12.7071C8.89664 12.5196 9.002 12.2652 9.002 12C9.002 11.7348 8.89664 11.4804 8.70911 11.2929C8.52157 11.1054 8.26722 11 8.002 11Z" fill="#FFFF00"/>
</g>
<path opacity="0.8" d="M25.0568 4.27273H26.3182L29.2841 11.517H29.3864L32.3523 4.27273H33.6136V13H32.625V6.36932H32.5398L29.8125 13H28.858L26.1307 6.36932H26.0455V13H25.0568V4.27273ZM37.5224 13.1534C37.1076 13.1534 36.7312 13.0753 36.3931 12.919C36.055 12.7599 35.7866 12.5312 35.5877 12.233C35.3888 11.9318 35.2894 11.5682 35.2894 11.142C35.2894 10.767 35.3633 10.4631 35.511 10.2301C35.6587 9.99432 35.8562 9.80966 36.1033 9.67614C36.3505 9.54261 36.6232 9.44318 36.9215 9.37784C37.2227 9.30966 37.5252 9.25568 37.8292 9.21591C38.2269 9.16477 38.5494 9.12642 38.7965 9.10085C39.0465 9.07244 39.2283 9.02557 39.342 8.96023C39.4585 8.89489 39.5167 8.78125 39.5167 8.61932V8.58523C39.5167 8.16477 39.4016 7.83807 39.1715 7.60511C38.9442 7.37216 38.5991 7.25568 38.136 7.25568C37.6559 7.25568 37.2795 7.3608 37.0067 7.57102C36.734 7.78125 36.5423 8.00568 36.4315 8.24432L35.4769 7.90341C35.6474 7.50568 35.8746 7.19602 36.1587 6.97443C36.4457 6.75 36.7582 6.59375 37.0962 6.50568C37.4371 6.41477 37.7724 6.36932 38.1019 6.36932C38.3121 6.36932 38.5536 6.39489 38.8263 6.44602C39.1019 6.49432 39.3675 6.59517 39.6232 6.74858C39.8817 6.90199 40.0962 7.13352 40.2667 7.44318C40.4371 7.75284 40.5224 8.16761 40.5224 8.6875V13H39.5167V12.1136H39.4656C39.3974 12.2557 39.2837 12.4077 39.1246 12.5696C38.9656 12.7315 38.7539 12.8693 38.4897 12.983C38.2255 13.0966 37.9031 13.1534 37.5224 13.1534ZM37.6758 12.25C38.0735 12.25 38.4087 12.1719 38.6815 12.0156C38.957 11.8594 39.1644 11.6577 39.3036 11.4105C39.4457 11.1634 39.5167 10.9034 39.5167 10.6307V9.71023C39.4741 9.76136 39.3803 9.80824 39.2354 9.85085C39.0934 9.89062 38.9286 9.92614 38.7411 9.95739C38.5565 9.9858 38.3761 10.0114 38.1999 10.0341C38.0266 10.054 37.886 10.071 37.7781 10.0852C37.5167 10.1193 37.2724 10.1747 37.0451 10.2514C36.8207 10.3253 36.6388 10.4375 36.4996 10.5881C36.3633 10.7358 36.2951 10.9375 36.2951 11.1932C36.2951 11.5426 36.4244 11.8068 36.6829 11.9858C36.9442 12.1619 37.2752 12.25 37.6758 12.25ZM37.7099 5.56818L38.7496 3.59091H39.9258L38.5962 5.56818H37.7099ZM43.108 6.45455L44.6761 9.13068L46.2443 6.45455H47.4034L45.2898 9.72727L47.4034 13H46.2443L44.6761 10.4602L43.108 13H41.9489L44.0284 9.72727L41.9489 6.45455H43.108ZM49.5714 13.0682C49.3612 13.0682 49.1808 12.9929 49.0302 12.8423C48.8796 12.6918 48.8043 12.5114 48.8043 12.3011C48.8043 12.0909 48.8796 11.9105 49.0302 11.7599C49.1808 11.6094 49.3612 11.5341 49.5714 11.5341C49.7816 11.5341 49.962 11.6094 50.1126 11.7599C50.2631 11.9105 50.3384 12.0909 50.3384 12.3011C50.3384 12.4403 50.3029 12.5682 50.2319 12.6847C50.1637 12.8011 50.0714 12.8949 49.9549 12.9659C49.8413 13.0341 49.7134 13.0682 49.5714 13.0682ZM57.9897 13.1364C57.4442 13.1364 56.9627 12.9986 56.5451 12.723C56.1275 12.4446 55.8008 12.0526 55.565 11.5469C55.3292 11.0384 55.2113 10.4375 55.2113 9.74432C55.2113 9.05682 55.3292 8.46023 55.565 7.95455C55.8008 7.44886 56.1289 7.05824 56.5494 6.78267C56.9698 6.5071 57.4556 6.36932 58.0067 6.36932C58.4329 6.36932 58.7695 6.44034 59.0167 6.58239C59.2667 6.72159 59.457 6.88068 59.5877 7.05966C59.7212 7.2358 59.8249 7.38068 59.8988 7.49432H59.984V4.27273H60.9897V13H60.0181V11.9943H59.8988C59.8249 12.1136 59.7198 12.2642 59.5835 12.446C59.4471 12.625 59.2525 12.7855 58.9996 12.9276C58.7468 13.0668 58.4102 13.1364 57.9897 13.1364ZM58.1261 12.233C58.5295 12.233 58.8704 12.1278 59.1488 11.9176C59.4272 11.7045 59.6388 11.4105 59.7837 11.0355C59.9286 10.6577 60.0011 10.2216 60.0011 9.72727C60.0011 9.23864 59.93 8.81108 59.788 8.4446C59.646 8.07528 59.4357 7.78835 59.1573 7.58381C58.8789 7.37642 58.5352 7.27273 58.1261 7.27273C57.6999 7.27273 57.3448 7.3821 57.0607 7.60085C56.7795 7.81676 56.5678 8.1108 56.4258 8.48295C56.2866 8.85227 56.217 9.26705 56.217 9.72727C56.217 10.1932 56.288 10.6165 56.43 10.9972C56.5749 11.375 56.788 11.6761 57.0692 11.9006C57.3533 12.1222 57.7056 12.233 58.1261 12.233ZM65.7156 13.1364C65.0849 13.1364 64.5408 12.9972 64.0835 12.7188C63.6289 12.4375 63.2781 12.0455 63.0309 11.5426C62.7866 11.0369 62.6644 10.4489 62.6644 9.77841C62.6644 9.10795 62.7866 8.51705 63.0309 8.00568C63.2781 7.49148 63.6218 7.09091 64.0621 6.80398C64.5053 6.5142 65.0224 6.36932 65.6133 6.36932C65.9542 6.36932 66.2908 6.42614 66.6232 6.53977C66.9556 6.65341 67.2582 6.83807 67.5309 7.09375C67.8036 7.34659 68.021 7.68182 68.1829 8.09943C68.3448 8.51705 68.4258 9.03125 68.4258 9.64205V10.0682H63.3803V9.19886H67.4031C67.4031 8.82955 67.3292 8.5 67.1815 8.21023C67.0366 7.92045 66.8292 7.69176 66.5593 7.52415C66.2923 7.35653 65.9769 7.27273 65.6133 7.27273C65.2127 7.27273 64.8661 7.37216 64.5735 7.57102C64.2837 7.76705 64.0607 8.02273 63.9045 8.33807C63.7482 8.65341 63.6701 8.99148 63.6701 9.35227V9.93182C63.6701 10.4261 63.7553 10.8452 63.9258 11.1889C64.0991 11.5298 64.3391 11.7898 64.646 11.9688C64.9528 12.1449 65.3093 12.233 65.7156 12.233C65.9798 12.233 66.2184 12.196 66.4315 12.1222C66.6474 12.0455 66.8335 11.9318 66.9897 11.7812C67.146 11.6278 67.2667 11.4375 67.3519 11.2102L68.3235 11.483C68.2212 11.8125 68.0494 12.1023 67.8079 12.3523C67.5664 12.5994 67.2681 12.7926 66.913 12.9318C66.5579 13.0682 66.1587 13.1364 65.7156 13.1364ZM76.109 13.1193C75.5238 13.1193 75.0067 13.0156 74.5579 12.8082C74.1119 12.598 73.7638 12.3097 73.5138 11.9432C73.2638 11.5739 73.1403 11.1534 73.1431 10.6818C73.1403 10.3125 73.2127 9.97159 73.3604 9.65909C73.5082 9.34375 73.7099 9.08097 73.9656 8.87074C74.2241 8.65767 74.5124 8.52273 74.8306 8.46591V8.41477C74.413 8.30682 74.0806 8.07244 73.8335 7.71165C73.5863 7.34801 73.4641 6.93466 73.467 6.47159C73.4641 6.02841 73.5763 5.6321 73.8036 5.28267C74.0309 4.93324 74.3434 4.65767 74.7411 4.45597C75.1417 4.25426 75.5977 4.15341 76.109 4.15341C76.6147 4.15341 77.0664 4.25426 77.4641 4.45597C77.8619 4.65767 78.1744 4.93324 78.4016 5.28267C78.6317 5.6321 78.7482 6.02841 78.7511 6.47159C78.7482 6.93466 78.6218 7.34801 78.3718 7.71165C78.1246 8.07244 77.7965 8.30682 77.3874 8.41477V8.46591C77.7028 8.52273 77.9869 8.65767 78.2397 8.87074C78.4925 9.08097 78.6942 9.34375 78.8448 9.65909C78.9954 9.97159 79.0721 10.3125 79.0749 10.6818C79.0721 11.1534 78.9442 11.5739 78.6914 11.9432C78.4414 12.3097 78.0934 12.598 77.6474 12.8082C77.2042 13.0156 76.6914 13.1193 76.109 13.1193ZM76.109 12.1818C76.5039 12.1818 76.8448 12.1179 77.1317 11.9901C77.4187 11.8622 77.6403 11.6818 77.7965 11.4489C77.9528 11.2159 78.0323 10.9432 78.0352 10.6307C78.0323 10.3011 77.9471 10.0099 77.7795 9.7571C77.6119 9.50426 77.3832 9.3054 77.0934 9.16051C76.8065 9.01562 76.4783 8.94318 76.109 8.94318C75.7369 8.94318 75.4045 9.01562 75.1119 9.16051C74.8221 9.3054 74.5934 9.50426 74.4258 9.7571C74.261 10.0099 74.18 10.3011 74.1829 10.6307C74.18 10.9432 74.2553 11.2159 74.4087 11.4489C74.565 11.6818 74.788 11.8622 75.0778 11.9901C75.3675 12.1179 75.7113 12.1818 76.109 12.1818ZM76.109 8.03977C76.4215 8.03977 76.6985 7.97727 76.94 7.85227C77.1843 7.72727 77.3761 7.55256 77.5153 7.32812C77.6545 7.10369 77.7255 6.84091 77.7283 6.53977C77.7255 6.24432 77.6559 5.98722 77.5195 5.76847C77.3832 5.54687 77.1942 5.37642 76.9528 5.2571C76.7113 5.13494 76.43 5.07386 76.109 5.07386C75.7823 5.07386 75.4968 5.13494 75.2525 5.2571C75.0082 5.37642 74.8192 5.54687 74.6857 5.76847C74.5522 5.98722 74.4869 6.24432 74.4897 6.53977C74.4869 6.84091 74.5536 7.10369 74.69 7.32812C74.8292 7.55256 75.021 7.72727 75.2653 7.85227C75.5096 7.97727 75.7908 8.03977 76.109 8.03977ZM85.1058 4.27273V13H84.1001V4.27273H85.1058ZM89.6921 13.1364C89.0614 13.1364 88.5174 12.9972 88.06 12.7188C87.6055 12.4375 87.2546 12.0455 87.0075 11.5426C86.7631 11.0369 86.641 10.4489 86.641 9.77841C86.641 9.10795 86.7631 8.51705 87.0075 8.00568C87.2546 7.49148 87.5984 7.09091 88.0387 6.80398C88.4819 6.5142 88.9989 6.36932 89.5898 6.36932C89.9308 6.36932 90.2674 6.42614 90.5998 6.53977C90.9322 6.65341 91.2347 6.83807 91.5075 7.09375C91.7802 7.34659 91.9975 7.68182 92.1594 8.09943C92.3214 8.51705 92.4023 9.03125 92.4023 9.64205V10.0682H87.3569V9.19886H91.3796C91.3796 8.82955 91.3058 8.5 91.158 8.21023C91.0131 7.92045 90.8058 7.69176 90.5359 7.52415C90.2688 7.35653 89.9535 7.27273 89.5898 7.27273C89.1893 7.27273 88.8427 7.37216 88.5501 7.57102C88.2603 7.76705 88.0373 8.02273 87.881 8.33807C87.7248 8.65341 87.6467 8.99148 87.6467 9.35227V9.93182C87.6467 10.4261 87.7319 10.8452 87.9023 11.1889C88.0756 11.5298 88.3157 11.7898 88.6225 11.9688C88.9293 12.1449 89.2859 12.233 89.6921 12.233C89.9563 12.233 90.195 12.196 90.408 12.1222C90.6239 12.0455 90.81 11.9318 90.9663 11.7812C91.1225 11.6278 91.2433 11.4375 91.3285 11.2102L92.3001 11.483C92.1978 11.8125 92.0259 12.1023 91.7844 12.3523C91.543 12.5994 91.2447 12.7926 90.8896 12.9318C90.5344 13.0682 90.1353 13.1364 89.6921 13.1364ZM96.7788 6.45455V7.30682H93.3867V6.45455H96.7788ZM94.3754 4.88636H95.381V11.125C95.381 11.4091 95.4222 11.6222 95.5046 11.7642C95.5898 11.9034 95.6978 11.9972 95.8285 12.0455C95.962 12.0909 96.1026 12.1136 96.2504 12.1136C96.3612 12.1136 96.4521 12.108 96.5231 12.0966C96.5941 12.0824 96.6509 12.071 96.6935 12.0625L96.8981 12.9659C96.8299 12.9915 96.7347 13.017 96.6126 13.0426C96.4904 13.071 96.3356 13.0852 96.1481 13.0852C95.864 13.0852 95.5856 13.0241 95.3129 12.902C95.043 12.7798 94.8185 12.5938 94.6396 12.3438C94.4634 12.0938 94.3754 11.7784 94.3754 11.3977V4.88636ZM98.2915 13V6.45455H99.2631V7.44318H99.3313C99.4506 7.11932 99.6665 6.85653 99.979 6.65483C100.292 6.45312 100.644 6.35227 101.036 6.35227C101.11 6.35227 101.202 6.35369 101.313 6.35653C101.424 6.35937 101.507 6.36364 101.564 6.36932V7.39205C101.53 7.38352 101.452 7.37074 101.33 7.35369C101.211 7.33381 101.084 7.32386 100.951 7.32386C100.632 7.32386 100.348 7.39062 100.098 7.52415C99.8512 7.65483 99.6552 7.83665 99.5103 8.0696C99.3683 8.29972 99.2972 8.5625 99.2972 8.85795V13H98.2915ZM104.683 13.1534C104.268 13.1534 103.891 13.0753 103.553 12.919C103.215 12.7599 102.947 12.5312 102.748 12.233C102.549 11.9318 102.45 11.5682 102.45 11.142C102.45 10.767 102.523 10.4631 102.671 10.2301C102.819 9.99432 103.016 9.80966 103.263 9.67614C103.511 9.54261 103.783 9.44318 104.082 9.37784C104.383 9.30966 104.685 9.25568 104.989 9.21591C105.387 9.16477 105.71 9.12642 105.957 9.10085C106.207 9.07244 106.388 9.02557 106.502 8.96023C106.619 8.89489 106.677 8.78125 106.677 8.61932V8.58523C106.677 8.16477 106.562 7.83807 106.332 7.60511C106.104 7.37216 105.759 7.25568 105.296 7.25568C104.816 7.25568 104.44 7.3608 104.167 7.57102C103.894 7.78125 103.702 8.00568 103.592 8.24432L102.637 7.90341C102.808 7.50568 103.035 7.19602 103.319 6.97443C103.606 6.75 103.918 6.59375 104.256 6.50568C104.597 6.41477 104.933 6.36932 105.262 6.36932C105.472 6.36932 105.714 6.39489 105.987 6.44602C106.262 6.49432 106.528 6.59517 106.783 6.74858C107.042 6.90199 107.256 7.13352 107.427 7.44318C107.597 7.75284 107.683 8.16761 107.683 8.6875V13H106.677V12.1136H106.626C106.558 12.2557 106.444 12.4077 106.285 12.5696C106.126 12.7315 105.914 12.8693 105.65 12.983C105.386 13.0966 105.063 13.1534 104.683 13.1534ZM104.836 12.25C105.234 12.25 105.569 12.1719 105.842 12.0156C106.117 11.8594 106.325 11.6577 106.464 11.4105C106.606 11.1634 106.677 10.9034 106.677 10.6307V9.71023C106.634 9.76136 106.54 9.80824 106.396 9.85085C106.254 9.89062 106.089 9.92614 105.901 9.95739C105.717 9.9858 105.536 10.0114 105.36 10.0341C105.187 10.054 105.046 10.071 104.938 10.0852C104.677 10.1193 104.433 10.1747 104.205 10.2514C103.981 10.3253 103.799 10.4375 103.66 10.5881C103.523 10.7358 103.455 10.9375 103.455 11.1932C103.455 11.5426 103.585 11.8068 103.843 11.9858C104.104 12.1619 104.435 12.25 104.836 12.25ZM114.154 7.92045L113.251 8.17614C113.194 8.02557 113.11 7.87926 113 7.73722C112.892 7.59233 112.744 7.47301 112.556 7.37926C112.369 7.28551 112.129 7.23864 111.836 7.23864C111.436 7.23864 111.102 7.33097 110.835 7.51562C110.571 7.69744 110.439 7.92898 110.439 8.21023C110.439 8.46023 110.529 8.65767 110.711 8.80256C110.893 8.94744 111.177 9.06818 111.564 9.16477L112.535 9.40341C113.12 9.54545 113.556 9.76278 113.843 10.0554C114.13 10.3452 114.274 10.7187 114.274 11.1761C114.274 11.5511 114.166 11.8864 113.95 12.1818C113.737 12.4773 113.439 12.7102 113.055 12.8807C112.672 13.0511 112.225 13.1364 111.717 13.1364C111.049 13.1364 110.497 12.9915 110.059 12.7017C109.622 12.4119 109.345 11.9886 109.228 11.4318L110.183 11.1932C110.274 11.5455 110.446 11.8097 110.699 11.9858C110.954 12.1619 111.288 12.25 111.7 12.25C112.169 12.25 112.541 12.1506 112.816 11.9517C113.095 11.75 113.234 11.5085 113.234 11.2273C113.234 11 113.154 10.8097 112.995 10.6562C112.836 10.5 112.592 10.3835 112.262 10.3068L111.172 10.0511C110.572 9.90909 110.132 9.68892 109.85 9.39062C109.572 9.08949 109.433 8.71307 109.433 8.26136C109.433 7.89205 109.537 7.56534 109.744 7.28125C109.954 6.99716 110.24 6.77415 110.6 6.61222C110.964 6.45028 111.376 6.36932 111.836 6.36932C112.484 6.36932 112.993 6.51136 113.362 6.79545C113.734 7.07955 113.998 7.45455 114.154 7.92045Z" fill="#FFFF00"/>
<defs>
<clipPath id="clip0_2_132">
<rect width="16" height="16" fill="white" transform="translate(0 1)"/>
</clipPath>
</defs>
</svg>
